<svg height="100" viewBox="0 0 512 512" width="100" xmlns="http://www.w3.org/2000/svg"><g><g><path d="m305 256h175v240h-448v-240h176" fill="#5f4d37"/><path d="m456 360a64.007 64.007 0 0 1 -109.26 45.26l45.26-45.26z" fill="#ffda44"/><path d="m392 296v64l-45.26 45.26a64.007 64.007 0 0 1 45.26-109.26z" fill="#ab2300"/><path d="m456 360h-64v-64a64 64 0 0 1 64 64z" fill="#91cc04"/><path d="m80 304h24v96h-24z" fill="#83d8f4"/><path d="m128 328h24v72h-24z" fill="#91cc04"/><path d="m176 352h24v48h-24z" fill="#ffda44"/><path d="m208 256h-192v-144h480v144h-191" fill="#806749"/><path d="m368 80v-16a48 48 0 0 0 -48-48h-128a48 48 0 0 0 -48 48v16h32v-16a16.019 16.019 0 0 1 16-16h128a16.019 16.019 0 0 1 16 16v16z" fill="#5f4d37"/><g fill="#cca400"><path d="m128 88h64v24h-64z"/><path d="m320 88h64v24h-64z"/><path d="m208 224h96v64h-96z"/></g></g><g><path d="m80 408h24a8 8 0 0 0 8-8v-96a8 8 0 0 0 -8-8h-24a8 8 0 0 0 -8 8v96a8 8 0 0 0 8 8zm8-96h8v80h-8z"/><path d="m128 408h24a8 8 0 0 0 8-8v-72a8 8 0 0 0 -8-8h-24a8 8 0 0 0 -8 8v72a8 8 0 0 0 8 8zm8-72h8v56h-8z"/><path d="m176 408h24a8 8 0 0 0 8-8v-48a8 8 0 0 0 -8-8h-24a8 8 0 0 0 -8 8v48a8 8 0 0 0 8 8zm8-48h8v32h-8z"/><path d="m56 432h160a8 8 0 0 0 0-16h-152v-128a8 8 0 0 0 -16 0v136a8 8 0 0 0 8 8z"/><path d="m496 104h-104v-16a8 8 0 0 0 -8-8h-8v-16a56.062 56.062 0 0 0 -56-56h-128a56.062 56.062 0 0 0 -56 56v16h-8a8 8 0 0 0 -8 8v16h-104a8 8 0 0 0 -8 8v144a8 8 0 0 0 8 8h8v232a8 8 0 0 0 8 8h448a8 8 0 0 0 8-8v-232h8a8 8 0 0 0 8-8v-144a8 8 0 0 0 -8-8zm-304-24h-8v-16a8.011 8.011 0 0 1 8-8h128a8.011 8.011 0 0 1 8 8v16h-8a8 8 0 0 0 -8 8v16h-112v-16a8 8 0 0 0 -8-8zm136 16h48v8h-48zm-176-32a40.04 40.04 0 0 1 40-40h128a40.04 40.04 0 0 1 40 40v16h-16v-16a24.032 24.032 0 0 0 -24-24h-128a24.032 24.032 0 0 0 -24 24v16h-16zm-16 32h48v8h-48zm336 392h-432v-224h160v24a8 8 0 0 0 8 8h96a8 8 0 0 0 8-8v-24h160zm-256-208v-48h80v48zm272-32h-176v-24a8 8 0 0 0 -8-8h-96a8 8 0 0 0 -8 8v24h-176v-128h464z"/><path d="m392 288a72 72 0 1 0 72 72 72.083 72.083 0 0 0 -72-72zm8 16.58a56.11 56.11 0 0 1 47.42 47.42h-47.42zm-64 55.42a56.086 56.086 0 0 1 48-55.42v52.11l-36.83 36.83a55.708 55.708 0 0 1 -11.17-33.52zm56 56a55.708 55.708 0 0 1 -33.52-11.17l36.83-36.83h52.11a56.086 56.086 0 0 1 -55.42 48z"/><path d="m240 432h64a8 8 0 0 0 0-16h-64a8 8 0 0 0 0 16z"/><path d="m264 408h40a8 8 0 0 0 0-16h-40a8 8 0 0 0 0 16z"/><path d="m448 440h-112a8 8 0 0 0 -5.657 2.343l-21.657 21.657h-252.686a8 8 0 0 0 0 16h256a8 8 0 0 0 5.657-2.343l21.657-21.657h108.686a8 8 0 0 0 0-16z"/></g></g></svg>