<?xml version="1.0" encoding="utf-8"?>
<svg id="master-artboard" viewBox="0 0 1920 1080" version="1.1" xmlns="http://www.w3.org/2000/svg" x="0px" y="0px" style="enable-background:new 0 0 1400 980;" width="1920px" height="1080px"><defs><style id="ee-google-fonts">@import url(https://fonts.googleapis.com/css?family=Rubik:300,300italic,400,400italic,500,500italic,700,700italic,900,900italic);</style><radialGradient id="gradient-0" gradientUnits="objectBoundingBox" cx="0.5" cy="0.5" r="0.5" gradientTransform="matrix(0.9662312865257263, -0.00482410192489624, 0.004992544651031494, 0.9999874634595471, 0.014388054609298706, 0.0024182894303521607)">
                <stop offset="0" style="stop-color: #747474"/>
                <stop offset="1" style="stop-color: #414141"/>
              </radialGradient><linearGradient id="gradient-1" gradientUnits="userSpaceOnUse" x1="138.2503204345703" y1="61.464759826660156" x2="138.25033569335938" y2="161.4647674560547">
                <stop offset="0" style="stop-color: #333333"/>
                <stop offset="1" style="stop-color: #000000"/>
              </linearGradient><radialGradient id="gradient-2" gradientUnits="objectBoundingBox" cx="0.2846215069293976" cy="0.7940670847892761" r="0.5">
                <stop offset="0" style="stop-color: #272823"/>
                <stop offset="1" style="stop-color: #000000"/>
              </radialGradient></defs><rect id="ee-background" x="0" y="0" width="1920" height="1080" style="fill: url('#gradient-0'); fill-opacity: 1; pointer-events: none;"/>
<g transform="matrix(20.83750915527344, -11.972099304199222, 11.972099304199222, 20.83750915527344, -2754.6227558760615, -1117.0062271352924)"><g id="Layer_2_4_" transform="matrix(1, 0, 0, 1, -5.391486316405626, -0.07761164292458744)">
	<g id="Layer_1-2_4_">
		<path class="st0" d="M58,49h100v100H58V49z" style="fill: url('#gradient-2');"/>
	</g>
</g></g><g transform="matrix(3.5592136383056636, 0, 0, 3.5592136383056636, -1133.5884640384804, -2322.9827229365164)"><g id="g-3" transform="matrix(1, 0, 0, 1, 0, 0)">
	<g id="g-4">
		<g>
			<path class="st0" d="M654,884c-29.2,0-53-23.8-53-53s23.8-53,53-53s53,23.8,53,53S683.2,884,654,884z M654,784&#10;&#9;&#9;&#9;&#9;c-25.9,0-47,21.1-47,47s21.1,47,47,47s47-21.1,47-47S679.9,784,654,784z" style="fill: rgb(193, 196, 173); stroke: rgb(184, 194, 174); fill-opacity: 1;"/>
		</g>
	</g>
</g></g><g transform="matrix(-15.216547012329098, -13.569554328918457, 13.569554328918457, -15.216547012329098, 4356.3726552667395, 9876.961760966831)"><g id="g-1" transform="matrix(1, 0, 0, 1, 0, 0)">
	<g id="g-2">
		<path class="st0" d="M355.7,185.2c20.2,7.9,30.5,31.1,22.6,51.2c-8,20.1-30.7,29.9-50.8,22c-2.3-0.9-4.4-2.1-6.5-3.4&#10;&#9;&#9;&#9;c11.8,25.2,41.9,36.1,67.1,24.2c11.6-5.4,20.7-15.1,25.4-27c10-25.9-2.9-54.9-28.7-64.9C375.5,183.8,365.4,183,355.7,185.2z" style="fill: rgb(196, 0, 39);"/>
	</g>
</g></g><g transform="matrix(7.815074920654296, 0, 0, 7.815074920654296, -3923.8709474234493, -27.332664945764407)"><g id="Layer_2" transform="matrix(1, 0, 0, 1, 106.14049141603226, -2.5887924735617673)">
	<g id="Layer_1-2">
		<path class="st0" d="M652,46c27.6,0,50,22.4,50,50s-22.4,50-50,50s-50-22.4-50-50S624.4,46,652,46z" style="fill: rgb(51, 51, 51); stroke-opacity: 1; fill-opacity: 0.51;"/>
	</g>
</g></g></svg>